<svg xmlns="http://www.w3.org/2000/svg" viewBox="0 0 469.77 154.48"><defs><style>.cls-1{fill:#6236ff}</style></defs><g id="Слой_2" data-name="Слой 2"><g id="Слой_1-2" data-name="Слой 1"><path class="cls-1" d="M142.67 36.18A77.24 77.24 0 1 1 .26 83.56C.09 81.46 129 14.45 142.67 36.18z"/><path d="M67.55 124.18a76.06 76.06 0 0 0 75.06-88.09A77.38 77.38 0 0 0 97.54 2.7 58.83 58.83 0 1 1 .42 69.11 78.11 78.11 0 0 0 0 77.24q0 3.19.26 6.32a76 76 0 0 0 67.29 40.62z" fill="#0b7fff"/><path d="M49.44 95.4a58.83 58.83 0 0 0 48.1-92.7A77.29 77.29 0 0 0 .42 69.11 58.77 58.77 0 0 0 49.44 95.4z" fill="#01f6fd"/><path d="M120.83 61.45H97.72A4.7 4.7 0 0 1 93 56.76V33.65A4.7 4.7 0 0 0 88.33 29H66.08a4.7 4.7 0 0 0-4.69 4.69v23.1a4.7 4.7 0 0 1-4.69 4.69H33.59a4.7 4.7 0 0 0-4.69 4.69v22.22a4.7 4.7 0 0 0 4.69 4.69h23.1a4.7 4.7 0 0 1 4.69 4.69v23.1a4.7 4.7 0 0 0 4.69 4.69h22.26a4.7 4.7 0 0 0 4.67-4.67V97.78a4.7 4.7 0 0 1 4.69-4.69h23.1a4.7 4.7 0 0 0 4.69-4.69V66.14a4.7 4.7 0 0 0-4.65-4.69z" fill="#fff"/><path d="M121 76.71l-18.47-10.64a.56.56 0 0 0-.88.5V88a.56.56 0 0 0 .88.5L121 77.83a.7.7 0 0 0 0-1.12zm-87.82 1.12L51.7 88.47a.56.56 0 0 0 .88-.5v-21.4a.56.56 0 0 0-.88-.5L33.18 76.71a.7.7 0 0 0 0 1.12zM76.8 33.24L66.17 51.76a.56.56 0 0 0 .5.88h21.4a.56.56 0 0 0 .5-.88L77.93 33.24a.7.7 0 0 0-1.13 0zm1.13 88.06l10.64-18.52a.56.56 0 0 0-.5-.88h-21.4a.56.56 0 0 0-.5.88L76.8 121.3a.7.7 0 0 0 1.13 0z" fill="#f6cd40"/><circle class="cls-1" cx="77.24" cy="77.24" r="9.94"/><path d="M207.91 20.31c11.45 0 17.89 4.72 17.89 13.1 0 4.42-2.47 7.26-6.44 8.83 6.29 1.65 9.36 5.24 9.36 11.3 0 7.94-7.26 12.43-20.29 12.43h-20.28V20.31zm.9 17.89c2.4 0 3.74-1.27 3.74-3.52s-1.65-3.44-4.64-3.44h-5.76v7zm-.22 16.69c3.67 0 5.69-1.42 5.69-4 0-2.4-1.95-3.74-5.46-3.74h-6.66v7.79zM247.89 66h-14.83l16.39-45.66h19.09L284.94 66H270.2l-2.25-6.81h-17.89zm12.5-29.64c-.67-1.87-1-3.44-1.42-4.79-.3 1.35-.75 2.92-1.35 4.79L254 47.26h10zM311 20.31c13.18 0 20.59 6.21 20.59 17.29 0 6.81-2.7 11.6-7.49 14.37l9.06 12.43V66h-14.9l-8.38-11.45h-4.49V66h-14V20.31zm.9 23.06c3.82 0 5.91-2.1 5.91-5.76s-2.4-5.61-6.67-5.61h-5.76v11.36zM363.92 33v33H350V33h-13.55V20.31h41V33zm20.66 33V20.31h34.66V32h-20.81v5.84h17.67v10.91h-17.67v5.46h21.41V66zm63.04-45.69c13.18 0 20.59 6.21 20.59 17.29 0 6.81-2.7 11.6-7.49 14.37l9.06 12.43V66h-14.9l-8.38-11.45H442V66h-14V20.31zm.9 23.06c3.82 0 5.91-2.1 5.91-5.76S452 32 447.77 32H442v11.36zm-260.37 89.98V87.68h14v32.94h19.61v12.73zm53.97 0H227.3l16.4-45.66h19.09l16.39 45.66h-14.75l-2.25-6.81h-17.89zm12.5-29.64c-.67-1.87-1-3.44-1.42-4.79-.3 1.35-.75 2.92-1.35 4.79l-3.67 10.93h10zm62.14 29.64l-17.14-23.13v23.13h-14V87.68h12.65l17.14 23.13V87.68h14v45.66zm40.8-45.67c16.32 0 25.53 8.23 25.53 22.83s-9.21 22.83-25.53 22.83h-17.82V87.68zm0 33.76c7.26 0 11.38-3.89 11.38-10.93s-4.12-11-11.38-11h-3.82v21.93z" fill="#333"/></g></g></svg>